HIERARCHY
ROOT RootJoint
{
    OFFSET   0.000000   0.000000   0.000000
    CHANNELS 6 Xposition Yposition Zposition Xrotation Yrotation Zrotation
    JOINT pelvis_lowerback
    {
        OFFSET   0.000000   0.093605   0.000000
        CHANNELS 3 Xrotation Yrotation Zrotation
        JOINT lowerback_torso
        {
            OFFSET   0.000000   0.100000   0.000000
            CHANNELS 3 Xrotation Yrotation Zrotation
            JOINT torso_head
            {
                OFFSET   0.000000   0.282350   0.000000
                CHANNELS 3 Xrotation Yrotation Zrotation
                End Site
                {
                    OFFSET   0.000000   0.192650   0.000000
                }
            }
            JOINT rTorso_Clavicle
            {
                OFFSET  -0.001000   0.157500   0.000000
                CHANNELS 3 Xrotation Yrotation Zrotation
                JOINT rShoulder
                {
                    OFFSET  -0.117647   0.000000   0.000000
                    CHANNELS 3 Xrotation Yrotation Zrotation
                    JOINT rElbow
                    {
                        OFFSET  -0.245000   0.000000   0.000000
                        CHANNELS 3 Xrotation Yrotation Zrotation
                        JOINT rWrist
                        {
                            OFFSET  -0.240000   0.000000   0.000000
                            CHANNELS 3 Xrotation Yrotation Zrotation
                            End Site
                            {
                                OFFSET  -0.116353  -0.002500   0.000000
                            }
                        }
                    }
                }
            }
            JOINT lTorso_Clavicle
            {
                OFFSET   0.001000   0.157500   0.000000
                CHANNELS 3 Xrotation Yrotation Zrotation
                JOINT lShoulder
                {
                    OFFSET   0.117647   0.000000   0.000000
                    CHANNELS 3 Xrotation Yrotation Zrotation
                    JOINT lElbow
                    {
                        OFFSET   0.245000   0.000000   0.000000
                        CHANNELS 3 Xrotation Yrotation Zrotation
                        JOINT lWrist
                        {
                            OFFSET   0.240000   0.000000   0.000000
                            CHANNELS 3 Xrotation Yrotation Zrotation
                            End Site
                            {
                                OFFSET   0.116353  -0.002500   0.000000
                            }
                        }
                    }
                }
            }
        }
    }
    JOINT rHip
    {
        OFFSET  -0.100000  -0.051395   0.000000
        CHANNELS 3 Xrotation Yrotation Zrotation
        JOINT rKnee
        {
            OFFSET   0.000000  -0.410000   0.000000
            CHANNELS 3 Xrotation Yrotation Zrotation
            JOINT rAnkle
            {
                OFFSET   0.000000  -0.390000   0.000000
                CHANNELS 3 Xrotation Yrotation Zrotation
                JOINT rToeJoint
                {
                    OFFSET   0.000000  -0.050000   0.130000
                    CHANNELS 3 Xrotation Yrotation Zrotation
                    End Site
                    {
                        OFFSET  -0.010000   0.002000   0.060000
                    }
                }
            }
        }
    }
    JOINT lHip
    {
        OFFSET   0.100000  -0.051395   0.000000
        CHANNELS 3 Xrotation Yrotation Zrotation
        JOINT lKnee
        {
            OFFSET   0.000000  -0.410000   0.000000
            CHANNELS 3 Xrotation Yrotation Zrotation
            JOINT lAnkle
            {
                OFFSET   0.000000  -0.390000   0.000000
                CHANNELS 3 Xrotation Yrotation Zrotation
                JOINT lToeJoint
                {
                    OFFSET   0.000000  -0.050000   0.130000
                    CHANNELS 3 Xrotation Yrotation Zrotation
                    End Site
                    {
                        OFFSET   0.010000   0.002000   0.060000
                    }
                }
            }
        }
    }
}
MOTION
Frames: 11
Frame Time:   0.008333
 -2.254890   0.856508   4.202259   9.469867  13.381259  -2.363575  -2.404821   6.825461  -1.920099  16.630074   3.042901   1.552954 -13.167727  -6.430113   0.687532   1.041828   8.570202   8.920316   5.118329  15.123996  34.089725  -0.369132  82.780690   0.348551   1.820383   5.095808  -0.095303   7.898273   1.021188  -6.730544  33.889309   1.599595 -32.060545  -0.011120 -70.746475  -0.028221   0.964714  -6.581141   0.094533  -6.361985   0.153727  -5.840546  64.942731   0.121841   0.064079   1.238827  -0.473645   4.520090  -8.781912   0.042273   0.010816 -46.225192   7.785331  -3.184249  64.307743  -0.003902  -0.022697 -35.679192   2.391276   5.080102  -0.484353  -0.000762  -0.001912
 -2.249329   0.853776   4.213736   9.477069  14.553224  -2.193126  -2.339579   6.247917  -2.005213  16.567836   2.332466   1.139323 -13.013948  -6.332720   1.022415   1.308933   8.027031   8.960483   6.622176  14.389907  34.446769  -0.303288  80.350893   0.278173   1.867110   5.472416  -0.101091   7.446990   0.754231  -7.240512  31.659811   0.483373 -32.108900  -0.040115 -71.898151  -0.062089   1.043964  -5.928716  -0.140264  -8.226739  -0.173106  -6.346373  69.016360   0.124069   0.045317   1.104070  -0.851520   4.123136  -7.870608   0.042857   0.005708 -43.275323   7.433205  -3.734057  63.266941  -0.003811  -0.026662 -37.074996   2.145345   5.374733  -0.437257  -0.000919  -0.001305
 -2.243774   0.850298   4.225008   9.474615  15.752806  -2.033520  -2.213789   5.605652  -2.074932  16.491799   1.551090   0.725979 -12.871156  -6.231438   1.343116   1.598438   7.480747   8.986557   8.066112  13.641214  34.779313  -0.250300  77.983028   0.221945   1.903241   5.315005  -0.140354   6.886151   0.381233  -7.806840  29.455214  -0.698012 -32.201611  -0.065588 -73.074810  -0.090641   1.112435  -5.746616  -0.149802 -10.280772  -0.472446  -6.894728  73.026678   0.124482   0.028687   0.961497  -1.206396   3.751575  -7.119563   0.041563   0.002097 -40.184449   7.015530  -4.209408  62.169800  -0.003736  -0.030885 -38.377691   1.906486   5.644482  -0.375089  -0.001162  -0.000732
 -2.238302   0.845884   4.236253   9.453906  16.979048  -1.889389  -2.071793   4.889929  -2.158594  16.423262   0.698229   0.331751 -12.732129  -6.134976   1.647926   1.897458   6.933556   9.004045   9.438094  12.916427  35.100481  -0.203516  75.751195   0.173200   1.936768   4.971266  -0.169651   6.289703  -0.058687  -8.378977  27.337650  -1.872605 -32.321287  -0.084639 -74.210441  -0.110680   1.176791  -5.825005  -0.084154 -12.436922  -0.704573  -7.446598  76.969995   0.124583   0.015512   0.821805  -1.536358   3.403023  -6.450011   0.039745  -0.000291 -37.027306   6.554693  -4.582051  61.160557  -0.003686  -0.034124 -39.590690   1.678899   5.891892  -0.310193  -0.001393  -0.000237
 -2.232929   0.840434   4.247507   9.434425  18.227717  -1.764739  -1.938842   4.115219  -2.261920  16.352231  -0.208561  -0.042863 -12.599657  -6.045221   1.933433   2.200847   6.384429   9.012576  10.738037  12.219263  35.411825  -0.162647  73.659743   0.131431   1.968850   4.574674  -0.195442   5.683609  -0.532409  -8.926378  25.321448  -3.009201 -32.458257  -0.098162 -75.291345  -0.123789   1.239558  -6.036202   0.014027 -14.664011  -0.868830  -7.994904  80.855822   0.124751   0.005239   0.685894  -1.843127   3.076105  -5.850998   0.037642  -0.001791 -33.882811   6.067141  -4.848882  60.270102  -0.003689  -0.036073 -40.719337   1.462753   6.119148  -0.245454  -0.001588   0.000180
 -2.227643   0.833903   4.258793   9.415785  19.491319  -1.654725  -1.817425   3.302083  -2.384395  16.276713  -1.148259  -0.399867 -12.475422  -5.962197   2.198509   2.504743   5.835736   9.010585  11.967880  11.549288  35.711951  -0.127968  71.701964   0.096693   1.999352   4.161143  -0.228017   5.080002  -1.019448  -9.437343  23.409160  -4.094249 -32.607774  -0.107381 -76.314218  -0.131837   1.301777  -6.321391   0.135664 -16.919716  -0.969319  -8.539160  84.693383   0.125014  -0.002839   0.554253  -2.128513   2.769551  -5.314634   0.035377  -0.002686 -30.784587   5.563942  -5.018447  59.491119  -0.003735  -0.036809 -41.769859   1.257697   6.328136  -0.183698  -0.001726   0.000510
 -2.222422   0.826304   4.270133   9.402100  20.762964  -1.560697  -1.713159   2.469604  -2.519410  16.196239  -2.101568  -0.739936 -12.359967  -5.885504   2.443879   2.807174   5.290496   8.999369  13.130837  10.905857  36.000561  -0.099330  69.869076   0.068607   2.028150   3.738202  -0.271482   4.487084  -1.505614  -9.912437  21.600228  -5.122419 -32.769188  -0.113426 -77.278828  -0.136444   1.363695  -6.649746   0.273160 -19.157606  -1.015754  -9.072684  88.412995   0.124796  -0.009096   0.428825  -2.393974   2.482076  -4.832787   0.033036  -0.003162 -27.758716   5.053678  -5.099133  58.808137  -0.003824  -0.036549 -42.747970   1.063274   6.520521  -0.125753  -0.001805   0.000760
 -2.217769   0.818324   4.280625   9.755984  21.930559  -1.735097  -1.444231   1.834428  -2.561264  15.644120  -2.990414  -1.018090 -12.253740  -5.551170   2.552962   3.195475   4.629863   8.739058  14.645301  10.071486  36.380305  -0.085153  68.796062   0.058128   1.944224   3.318132  -0.447078   3.928575  -1.971853  -9.992231  18.991298  -6.265725 -33.193361  -0.244129 -79.447254  -0.269974   1.403907  -5.852243  -0.256060 -22.069361  -0.861792  -9.300655  91.584969   0.122527  -0.008936  -0.128459  -2.719298   2.364719  -4.435792   0.029716  -0.002947 -24.560584   4.193861  -4.986459  55.938125  -0.000378  -0.054817 -43.549586   0.795624   6.616374  -0.208953  -0.000865   0.000250
 -2.213479   0.809444   4.290802  10.193000  23.100499  -2.036383  -1.131875   1.140509  -2.563836  15.049114  -3.933060  -1.247807 -12.144818  -5.217006   2.643743   3.594337   3.964777   8.405362  16.098162   9.271406  36.731796  -0.071372  67.828292   0.047776   1.868926   3.122009  -0.507796   3.228510  -2.535351  -9.947092  16.390868  -7.421415 -33.564196  -0.410430 -81.621930  -0.432575   1.443800  -5.751755  -0.394237 -25.254672  -0.693030  -9.399296  94.381120   0.118217  -0.007121  -0.665641  -3.020686   2.250590  -4.139425   0.026129  -0.002413 -21.348693   3.272618  -4.701955  52.687768   0.005013  -0.072166 -44.299698   0.542220   6.702085  -0.208019  -0.000698   0.000205
 -2.208148   0.804394   4.301731   9.853262  24.142189  -1.253769  -0.262286   0.442900  -3.138525  14.860960  -4.915237  -1.734471 -12.061621  -4.903727   2.701865   3.905053   3.468483   8.359404  17.405339   8.590924  37.136097  -0.064844  66.868343   0.041538   1.799587   2.720242  -0.619169   2.406131  -3.273858 -10.028060  13.831132  -8.563945 -33.884989  -0.563264 -83.585223  -0.582561   1.510680  -5.556304  -0.155846 -27.892663  -0.246014 -10.119149  96.629557   0.105945  -0.004839  -1.170237  -3.308795   2.131507  -3.822768   0.022614  -0.001861 -19.606996   2.889364  -5.338935  52.914099   0.004182  -0.056536 -45.194217   0.039597   6.748710   0.110808  -0.001657  -0.000007
 -2.202151   0.801440   4.314306   9.204963  24.810857  -0.379195   0.565317  -0.203887  -3.585799  14.793455  -5.848233  -2.231330 -11.926922  -4.603801   2.728007   4.233758   2.980564   8.319275  18.658595   7.969508  37.556732  -0.056023  65.984875   0.031255   1.740141   2.353969  -0.536947   1.667682  -3.964811 -10.157725  11.446815  -9.638598 -34.283690  -0.766614 -85.440399  -0.782633   1.566320  -5.457425  -0.014563 -30.437881   0.163705 -10.501346  98.584875   0.087666  -0.000018  -1.650210  -3.576699   2.015468  -3.546749   0.018467  -0.001069 -17.616070   2.655450  -6.034218  52.564170   0.003271  -0.046192 -45.863691  -0.291531   6.753852   0.114439  -0.001329  -0.000007
